<?xml version="1.0" standalone="no"?>
<!DOCTYPE svg PUBLIC "-//W3C//DTD SVG 20010904//EN"
 "http://www.w3.org/TR/2001/REC-SVG-20010904/DTD/svg10.dtd">
<svg version="1.0" xmlns="http://www.w3.org/2000/svg"
 width="200.000000pt" height="200.000000pt" viewBox="0 0 200.000000 200.000000"
 preserveAspectRatio="xMidYMid meet">
<metadata>
Created by potrace 1.11, written by Peter Selinger 2001-2013
</metadata>
<g transform="translate(0.000000,200.000000) scale(0.100000,-0.100000)"
fill="#000000" stroke="none">
<path d="M632 1520 c-216 -97 -404 -188 -417 -200 -61 -57 -72 -194 -24 -295
17 -36 20 -50 10 -53 -19 -6 -59 -50 -77 -84 -38 -73 -25 -202 27 -282 30 -44
35 -47 132 -77 56 -17 145 -44 197 -60 92 -28 472 -141 537 -160 26 -8 42 -6
75 9 24 11 171 77 328 147 469 209 421 184 418 219 -3 26 -9 32 -49 44 l-46
15 -355 -162 -355 -161 -244 66 c-535 145 -542 147 -562 181 -10 17 -19 51
-21 75 -4 48 19 138 34 138 6 0 176 -50 378 -112 202 -61 383 -112 402 -112
19 1 64 15 100 32 36 17 196 89 355 160 463 207 427 188 423 220 -2 22 -11 29
-47 41 -37 12 -50 12 -80 1 -31 -11 -262 -116 -516 -235 -44 -21 -99 -46 -123
-56 l-42 -18 -123 35 c-67 19 -237 66 -377 105 -140 38 -266 77 -280 88 -47
34 -60 134 -28 208 l13 30 255 -74 c140 -41 262 -76 270 -78 8 -2 66 -20 128
-39 63 -20 118 -36 123 -36 5 0 107 43 227 96 119 53 253 112 297 131 268 118
280 124 279 146 -1 9 -2 23 -3 30 0 7 -34 22 -73 34 -284 82 -550 160 -647
189 -62 19 -116 34 -120 33 -3 0 -183 -81 -399 -179z m483 51 c55 -16 177 -52
270 -81 94 -28 188 -57 210 -64 l39 -12 -52 -21 -53 -22 -207 63 c-114 35
-251 76 -304 92 -54 16 -98 31 -98 34 0 9 74 46 85 43 6 -1 55 -16 110 -32z
m44 -146 c156 -47 286 -87 288 -89 3 -2 -19 -13 -48 -24 -48 -17 -56 -18 -98
-5 -69 22 -174 54 -191 58 -61 15 -357 109 -363 114 -4 4 11 17 34 28 31 16
48 19 68 12 14 -5 154 -47 310 -94z"/>
</g>
</svg>
